REM DIRINDEX 1\2,1\3,1\4,1\5,1\6
REM DIRNAME cjc129,folder01,folder02,folder03,folder04,folder05
TITLE ""
FILE "DISC3Track20.mp3" MP3
  TRACK 01 AUDIO
    TITLE "0:"
    INDEX 01 00:00:00
  TRACK 02 AUDIO
    TITLE "2:cjc129_2584"
    INDEX 01 00:03:14
  TRACK 03 AUDIO
    TITLE "0:"
    INDEX 01 00:12:50
  TRACK 04 AUDIO
    TITLE "2:cjc129_2585"
    INDEX 01 00:13:65
  TRACK 05 AUDIO
    TITLE "0:"
    INDEX 01 00:21:04
  TRACK 06 AUDIO
    TITLE "3:cjc129_2586"
    INDEX 01 00:22:17
  TRACK 07 AUDIO
    TITLE "0:"
    INDEX 01 00:23:71
  TRACK 08 AUDIO
    TITLE "5:cjc129_2587"
    INDEX 01 00:24:29
  TRACK 09 AUDIO
    TITLE "0:"
    INDEX 01 00:26:50
  TRACK 10 AUDIO
    TITLE "4:cjc129_2588"
    INDEX 01 00:27:41
  TRACK 11 AUDIO
    TITLE "0:"
    INDEX 01 00:29:23
  TRACK 12 AUDIO
    TITLE "6:cjc129_2589"
    INDEX 01 00:29:52
  TRACK 13 AUDIO
    TITLE "0:"
    INDEX 01 00:33:73
  TRACK 14 AUDIO
    TITLE "3:cjc129_2590"
    INDEX 01 00:35:49
  TRACK 15 AUDIO
    TITLE "0:"
    INDEX 01 00:37:28
  TRACK 16 AUDIO
    TITLE "5:cjc129_2591"
    INDEX 01 00:37:59
  TRACK 17 AUDIO
    TITLE "0:"
    INDEX 01 00:39:62
  TRACK 18 AUDIO
    TITLE "4:cjc129_2592"
    INDEX 01 00:40:54
  TRACK 19 AUDIO
    TITLE "0:"
    INDEX 01 00:42:35
  TRACK 20 AUDIO
    TITLE "6:cjc129_2593"
    INDEX 01 00:42:65
  TRACK 21 AUDIO
    TITLE "0:"
    INDEX 01 00:47:58
  TRACK 22 AUDIO
    TITLE "3:cjc129_2594"
    INDEX 01 00:49:33
  TRACK 23 AUDIO
    TITLE "0:"
    INDEX 01 00:51:07
  TRACK 24 AUDIO
    TITLE "5:cjc129_2595"
    INDEX 01 00:51:38
  TRACK 25 AUDIO
    TITLE "0:"
    INDEX 01 00:56:20
  TRACK 26 AUDIO
    TITLE "4:cjc129_2596"
    INDEX 01 00:57:13
  TRACK 27 AUDIO
    TITLE "0:"
    INDEX 01 00:58:62
  TRACK 28 AUDIO
    TITLE "6:cjc129_2597"
    INDEX 01 00:59:18
  TRACK 29 AUDIO
    TITLE "0:"
    INDEX 01 01:03:65
  TRACK 30 AUDIO
    TITLE "3:cjc129_2598"
    INDEX 01 01:05:40
  TRACK 31 AUDIO
    TITLE "0:"
    INDEX 01 01:07:10
  TRACK 32 AUDIO
    TITLE "5:cjc129_2599"
    INDEX 01 01:07:41
  TRACK 33 AUDIO
    TITLE "0:"
    INDEX 01 01:17:14
  TRACK 34 AUDIO
    TITLE "4:cjc129_2600"
    INDEX 01 01:18:04
  TRACK 35 AUDIO
    TITLE "0:"
    INDEX 01 01:19:50
  TRACK 36 AUDIO
    TITLE "6:cjc129_2601"
    INDEX 01 01:20:04
  TRACK 37 AUDIO
    TITLE "0:"
    INDEX 01 01:24:39
  TRACK 38 AUDIO
    TITLE "3:cjc129_2602"
    INDEX 01 01:26:13
  TRACK 39 AUDIO
    TITLE "0:"
    INDEX 01 01:27:57
  TRACK 40 AUDIO
    TITLE "5:cjc129_2603"
    INDEX 01 01:28:12
  TRACK 41 AUDIO
    TITLE "0:"
    INDEX 01 01:30:13
  TRACK 42 AUDIO
    TITLE "4:cjc129_2604"
    INDEX 01 01:31:02
  TRACK 43 AUDIO
    TITLE "0:"
    INDEX 01 01:32:47
  TRACK 44 AUDIO
    TITLE "6:cjc129_2605"
    INDEX 01 01:33:03
  TRACK 45 AUDIO
    TITLE "0:"
    INDEX 01 01:37:28
  TRACK 46 AUDIO
    TITLE "3:cjc129_2606"
    INDEX 01 01:39:04
  TRACK 47 AUDIO
    TITLE "0:"
    INDEX 01 01:40:42
  TRACK 48 AUDIO
    TITLE "5:cjc129_2607"
    INDEX 01 01:40:72
  TRACK 49 AUDIO
    TITLE "0:"
    INDEX 01 01:45:59
  TRACK 50 AUDIO
    TITLE "4:cjc129_2608"
    INDEX 01 01:46:51
  TRACK 51 AUDIO
    TITLE "0:"
    INDEX 01 01:48:14
  TRACK 52 AUDIO
    TITLE "6:cjc129_2609"
    INDEX 01 01:48:46
  TRACK 53 AUDIO
    TITLE "0:"
    INDEX 01 01:53:08
  TRACK 54 AUDIO
    TITLE "2:cjc129_2610"
    INDEX 01 01:54:58
  TRACK 55 AUDIO
    TITLE "0:"
    INDEX 01 02:01:37
  TRACK 56 AUDIO
    TITLE "3:cjc129_2611"
    INDEX 01 02:02:52
  TRACK 57 AUDIO
    TITLE "0:"
    INDEX 01 02:04:15
  TRACK 58 AUDIO
    TITLE "5:cjc129_2612"
    INDEX 01 02:04:49
  TRACK 59 AUDIO
    TITLE "0:"
    INDEX 01 02:09:11
  TRACK 60 AUDIO
    TITLE "4:cjc129_2613"
    INDEX 01 02:10:00
  TRACK 61 AUDIO
    TITLE "0:"
    INDEX 01 02:11:41
  TRACK 62 AUDIO
    TITLE "6:cjc129_2614"
    INDEX 01 02:11:72
  TRACK 63 AUDIO
    TITLE "0:"
    INDEX 01 02:16:56
